<svg width="50" height="49" viewBox="0 0 50 49" fill="none" xmlns="http://www.w3.org/2000/svg">
<g clip-path="url(#clip0_7_17)">
<path d="M8.85417 0.505005H41.1458C45.7655 0.505005 49.5 4.23948 49.5 8.85917V39.9008C49.5 44.5205 45.7655 48.255 41.1458 48.255H8.85417C4.23448 48.255 0.5 44.5205 0.5 39.9008V8.85917C0.5 4.23948 4.23448 0.505005 8.85417 0.505005Z" fill="url(#paint0_linear_7_17)" stroke="#FECCFF"/>
<path d="M11.25 34.1925V12.755C11.25 12.6092 11.3125 12.5259 11.4583 12.5259C11.8125 12.5259 12.1458 12.5259 12.625 12.505C13.125 12.4842 13.6458 12.4842 14.2083 12.4634C14.7708 12.4425 15.375 12.4425 16.0208 12.4217C16.6667 12.4009 17.2917 12.4009 17.9167 12.4009C19.625 12.4009 21.0417 12.6092 22.2083 13.0467C23.25 13.4009 24.2083 13.9842 25 14.755C25.6667 15.4217 26.1875 16.2342 26.5208 17.13C26.8333 18.005 27 18.9009 27 19.8384C27 21.63 26.5833 23.1092 25.75 24.2759C24.9167 25.4425 23.75 26.3175 22.3958 26.8175C20.9792 27.3384 19.4167 27.5259 17.7083 27.5259C17.2083 27.5259 16.875 27.5259 16.6667 27.505C16.4583 27.4842 16.1667 27.4842 15.7708 27.4842V34.1717C15.7917 34.3175 15.6875 34.4425 15.5417 34.4634H11.5C11.3333 34.4634 11.25 34.38 11.25 34.1925ZM15.7917 16.5467V23.5467C16.0833 23.5675 16.3542 23.5884 16.6042 23.5884H17.7083C18.5208 23.5884 19.3333 23.4634 20.1042 23.2134C20.7708 23.0259 21.3542 22.63 21.8125 22.1092C22.25 21.5884 22.4583 20.88 22.4583 19.9634C22.4792 19.3175 22.3125 18.6717 21.9792 18.1092C21.625 17.5675 21.125 17.1509 20.5208 16.9217C19.75 16.6092 18.9167 16.4842 18.0625 16.505C17.5208 16.505 17.0417 16.505 16.6458 16.5259C16.2292 16.505 15.9375 16.5259 15.7917 16.5467ZM40 22.2759C39.375 21.9425 38.7083 21.7134 38 21.5675C37.2292 21.4009 36.4583 21.2967 35.6667 21.2967C35.25 21.2759 34.8125 21.3384 34.4167 21.4425C34.1458 21.505 33.9167 21.6509 33.7708 21.8592C33.6667 22.0259 33.6042 22.2342 33.6042 22.4217C33.6042 22.6092 33.6875 22.7967 33.8125 22.9634C34 23.1925 34.25 23.38 34.5208 23.5259C35 23.7759 35.5 24.005 36 24.2134C37.125 24.5884 38.2083 25.1092 39.2083 25.7342C39.8958 26.1717 40.4583 26.755 40.8542 27.4634C41.1875 28.13 41.3542 28.8592 41.3333 29.6092C41.3542 30.5884 41.0625 31.5675 40.5208 32.38C39.9375 33.2134 39.125 33.8592 38.1875 34.2342C37.1667 34.6717 35.9167 34.9009 34.4167 34.9009C33.4583 34.9009 32.5208 34.8175 31.5833 34.63C30.8542 34.505 30.125 34.2759 29.4583 33.9634C29.3125 33.88 29.2083 33.7342 29.2292 33.5675V29.9425C29.2292 29.88 29.25 29.7967 29.3125 29.755C29.375 29.7134 29.4375 29.7342 29.5 29.7759C30.3125 30.255 31.1667 30.5884 32.0833 30.7967C32.875 31.005 33.7083 31.1092 34.5417 31.1092C35.3333 31.1092 35.8958 31.005 36.2708 30.8175C36.6042 30.6717 36.8333 30.3175 36.8333 29.9425C36.8333 29.6509 36.6667 29.38 36.3333 29.1092C36 28.8384 35.3125 28.5259 34.2917 28.13C33.2292 27.755 32.25 27.255 31.3333 26.63C30.6875 26.1717 30.1458 25.5675 29.75 24.8592C29.4167 24.1925 29.25 23.4634 29.2708 22.7342C29.2708 21.8384 29.5208 20.9842 29.9792 20.2134C30.5 19.38 31.2708 18.7134 32.1667 18.2967C33.1458 17.7967 34.375 17.5675 35.8542 17.5675C36.7083 17.5675 37.5833 17.63 38.4375 17.755C39.0625 17.8384 39.6667 18.005 40.2292 18.2342C40.3125 18.255 40.3958 18.3384 40.4375 18.4217C40.4583 18.505 40.4792 18.5884 40.4792 18.6717V22.0675C40.4792 22.1509 40.4375 22.2342 40.375 22.2759C40.1875 22.3175 40.0833 22.3175 40 22.2759Z" fill="#31A8FF"/>
</g>
<defs>
<linearGradient id="paint0_linear_7_17" x1="3" y1="6.17384e-07" x2="45" y2="49" gradientUnits="userSpaceOnUse">
<stop stop-color="#001E36"/>
<stop offset="1" stop-color="#00579C"/>
</linearGradient>
<clipPath id="clip0_7_17">
<rect width="50" height="48.76" fill="white"/>
</clipPath>
</defs>
</svg>
