<svg width="50" height="50" viewBox="0 0 50 50" fill="none" xmlns="http://www.w3.org/2000/svg">
<g clip-path="url(#clip0_7_13)">
<path d="M8.30078 1.08594H41.6992C46.0075 1.08594 49.5 4.57847 49.5 8.88672V41.0352C49.5 45.3434 46.0075 48.8359 41.6992 48.8359H8.30078C3.99253 48.8359 0.5 45.3434 0.5 41.0352V8.88672C0.5 4.57847 3.99253 1.08594 8.30078 1.08594Z" fill="url(#paint0_linear_7_13)" stroke="#FECCFF"/>
<path d="M26.0876 14.928L20.8066 23.6444L26.4566 32.9003C26.4929 32.9651 26.503 33.0412 26.4851 33.1132C26.4762 33.144 26.4574 33.1516 26.4285 33.1527L26.3963 33.1523L26.3574 33.1512C26.3362 33.1511 26.3125 33.1522 26.2863 33.1565L22.2127 33.1564L22.1326 33.1553C21.913 33.1495 21.7549 33.1181 21.6583 32.9571C21.2795 32.2189 20.9009 31.4855 20.5227 30.7567C20.1911 30.1193 19.8418 29.4708 19.4745 28.8112L19.316 28.5279C18.8901 27.7711 18.469 27.0045 18.0526 26.2281H18.0241C17.6453 26.9854 17.2525 27.7425 16.8458 28.4995C16.4386 29.2568 16.0364 30.0092 15.6392 30.7567C15.2417 31.5046 14.8348 32.2476 14.4184 32.9855C14.3514 33.1358 14.2402 33.1672 14.0852 33.1725L14.0208 33.1734H10.1311L10.1143 33.1739L10.0587 33.179C10.0278 33.1808 10.0093 33.1741 10.0033 33.1274C9.99265 33.0582 10.0078 32.9875 10.046 32.9287L15.5256 23.9283L10.1879 14.8996C10.1311 14.8242 10.1216 14.7627 10.1595 14.715C10.202 14.6659 10.2651 14.6396 10.3299 14.644H14.3331C14.4204 14.6393 14.5077 14.6538 14.5887 14.6867C14.6566 14.7251 14.7148 14.7785 14.759 14.8428C15.0997 15.6001 15.4783 16.3572 15.8947 17.1142C16.3109 17.8715 16.732 18.6191 17.1582 19.3572C17.584 20.0954 17.9768 20.843 18.3365 21.6002H18.3649C18.7432 20.8243 19.1265 20.0671 19.5148 19.3288C19.9025 18.5906 20.3 17.8477 20.7072 17.1C21.1141 16.3525 21.5068 15.6096 21.8855 14.8712C21.9073 14.8011 21.9463 14.7377 21.9991 14.6867C22.0692 14.6511 22.148 14.6363 22.2262 14.6441H25.9456C26.0194 14.6258 26.0961 14.6612 26.1301 14.7292C26.161 14.7911 26.1493 14.8649 26.1026 14.914L26.0876 14.928ZM34.4317 33.5228L34.2358 33.525C32.929 33.5448 31.6341 33.2733 30.4454 32.73C29.3381 32.2175 28.4124 31.3808 27.7908 30.3308C27.164 29.2898 26.8424 27.9928 26.8261 26.4398L26.8254 26.3133C26.8148 25.0102 27.1477 23.7273 27.7908 22.5939C28.4348 21.4715 29.3734 20.5475 30.5042 19.9212L30.6016 19.8682C31.8318 19.1868 33.3176 18.8461 35.0592 18.8461L35.1354 18.847L35.2223 18.8497L35.3199 18.8541L35.4283 18.8603L35.6105 18.8732L35.8168 18.8898L35.9677 18.9029V13.3096C35.9677 13.1774 36.0246 13.1109 36.1381 13.1109H39.7155C39.7624 13.1042 39.8098 13.12 39.8433 13.1535C39.8768 13.187 39.8926 13.2343 39.8859 13.2812V30.0611C39.8859 30.3429 39.8968 30.6462 39.9185 30.9711L39.9714 31.7077L39.9995 32.1337C40.0066 32.2544 39.939 32.3671 39.8291 32.4176C38.9062 32.8026 37.9449 33.0881 36.9615 33.2694C36.1266 33.4235 35.2804 33.5082 34.4317 33.5228ZM35.9677 30.0043V22.2532C35.8143 22.2116 35.6576 22.1831 35.4993 22.168C35.3059 22.1486 35.1116 22.1391 34.9172 22.1396C34.2282 22.1328 33.5473 22.2884 32.9297 22.5939C32.3282 22.8929 31.8146 23.3429 31.4392 23.9C31.0644 24.4482 30.8706 25.1641 30.8578 26.0476L30.8571 26.1429C30.8433 26.7619 30.9444 27.378 31.1552 27.96C31.3268 28.429 31.5981 28.8553 31.9503 29.2093C32.2874 29.5351 32.6956 29.7781 33.1427 29.9191C33.6149 30.072 34.1085 30.1487 34.6049 30.1464C34.8698 30.1464 35.1158 30.1368 35.3431 30.1179C35.5245 30.1042 35.7042 30.0743 35.8801 30.0285L35.9677 30.0043Z" fill="#FF61F6"/>
</g>
<defs>
<linearGradient id="paint0_linear_7_13" x1="3" y1="0.999998" x2="45.5" y2="49" gradientUnits="userSpaceOnUse">
<stop stop-color="#470137"/>
<stop offset="1" stop-color="#AD0286"/>
</linearGradient>
<clipPath id="clip0_7_13">
<rect width="50" height="48.8281" fill="white" transform="translate(0 0.585938)"/>
</clipPath>
</defs>
</svg>
