<svg width="27" height="30" viewBox="0 0 27 30" fill="none" xmlns="http://www.w3.org/2000/svg">
<path fill-rule="evenodd" clip-rule="evenodd" d="M24.7836 0.794098C24.5499 0.29682 24.0484 0.000366211 23.4425 0.000366211H21.1011C20.4209 0.000366211 19.9126 0.274251 19.6448 0.767321L16.1746 5.83764L19.2125 9.99221L24.5166 2.38386C25.0988 1.67657 24.8972 1.03623 24.7836 0.794098Z" fill="#74BB11"/>
<path fill-rule="evenodd" clip-rule="evenodd" d="M6.48875 0.709578L6.48569 0.704987C5.95667 1.368e-07 5.25283 0 5.0214 0H2.73125C2.14446 0 1.66401 0.269678 1.41308 0.739032C1.15488 1.21986 1.20958 1.79747 1.56685 2.33262L10.0508 14.0936L0.294969 27.7007C-0.0458579 28.2125 -0.0936739 28.7813 0.163763 29.2617C0.416227 29.7311 0.897056 30 1.4827 30H3.82373C4.42582 30 4.95523 29.6875 5.21993 29.1952L16.1398 14.1479L6.48875 0.709578Z" fill="#009CD9"/>
<path fill-rule="evenodd" clip-rule="evenodd" d="M25.9483 27.8196L19.1417 18.4784L16.1477 22.6058L21.5305 29.7899L21.6705 29.8511C21.8841 29.9471 22.1154 29.9977 22.3495 29.9996H24.6389C25.192 29.9996 25.6614 29.754 25.9272 29.3248C26.1996 28.8849 26.2073 28.3367 25.9483 27.8196Z" fill="#EB2084"/>
</svg>
