<svg width="50" height="51" viewBox="0 0 50 51" fill="none" xmlns="http://www.w3.org/2000/svg">
<g clip-path="url(#clip0_7_21)">
<path d="M8.85417 1.5H41.1458C45.7537 1.5 49.5 5.32396 49.5 10.0812V41.9188C49.5 46.676 45.7537 50.5 41.1458 50.5H8.85417C4.24633 50.5 0.5 46.676 0.5 41.9188V10.0812C0.5 5.32396 4.24633 1.5 8.85417 1.5Z" fill="white" stroke="#FECCFF"/>
<path d="M19.5 41C22.536 41 25 38.76 25 36V31H19.5C16.464 31 14 33.24 14 36C14 38.76 16.464 41 19.5 41Z" fill="#0ACF83"/>
<path d="M14 26C14 23.24 16.464 21 19.5 21H25V31H19.5C16.464 31 14 28.76 14 26Z" fill="#A259FF"/>
<path d="M14 16C14 13.24 16.464 11 19.5 11H25V21H19.5C16.464 21 14 18.76 14 16Z" fill="#F24E1E"/>
<path d="M25 11H30.5C33.536 11 36 13.24 36 16C36 18.76 33.536 21 30.5 21H25V11Z" fill="#FF7262"/>
<path d="M36 26C36 28.76 33.536 31 30.5 31C27.464 31 25 28.76 25 26C25 23.24 27.464 21 30.5 21C33.536 21 36 23.24 36 26Z" fill="#1ABCFE"/>
</g>
<defs>
<clipPath id="clip0_7_21">
<rect width="50" height="50" fill="white" transform="translate(0 0.74353)"/>
</clipPath>
</defs>
</svg>
