<svg width="50" height="49" viewBox="0 0 50 49" fill="none" xmlns="http://www.w3.org/2000/svg">
<path d="M8.85417 0.5H41.1458C45.7655 0.5 49.5 4.23448 49.5 8.85417V39.8958C49.5 44.5155 45.7655 48.25 41.1458 48.25H8.85417C4.23448 48.25 0.5 44.5155 0.5 39.8958V8.85417C0.5 4.23448 4.23448 0.5 8.85417 0.5Z" fill="url(#paint0_linear_7_51)" stroke="#FECCFF"/>
<path d="M36.5342 11.5752L30.6982 9H18.6162L12.8213 11.6162L8 16.9727L24.6709 39.1367L41.3418 16.9727L36.5342 11.5752ZM39.9453 17.1094L34.6709 21.0547L30.917 15.4385L36.2188 12.9453L39.9453 17.1094ZM32.7393 21.6572H16.2871L19.5615 15.835L29.3701 15.8623L32.7393 21.6572ZM19.6982 9.87695H29.7393L34.6846 12.0547L29.7256 14.2188H19.6846L14.7666 12.0547L19.6982 9.87695ZM13.0957 12.9453L18.0684 15.4385L14.5068 20.9453L9.38281 17.1094L13.0957 12.9453ZM11.2871 20.0137L14.5332 22.7529L22.2451 35.4375L11.2871 20.0137ZM16.7393 23.4658H32.3555L24.6709 37.6436L16.7393 23.4658ZM27.082 35.4385L34.7939 22.7539L38.04 20.0283L27.082 35.4385Z" fill="#36CEF9"/>
<defs>
<linearGradient id="paint0_linear_7_51" x1="2.5" y1="2.5" x2="47" y2="45.5" gradientUnits="userSpaceOnUse">
<stop/>
<stop offset="1" stop-color="#10667E"/>
</linearGradient>
</defs>
</svg>
